<svg xmlns="http://www.w3.org/2000/svg" width="2583" height="460" viewBox="0 0 2583 460">
  <defs>
    <style>
      .cls-1 {
        fill: #3465ff;
      }

      .cls-2 {
        fill: #0000fe;
      }

      .cls-3 {
        fill: white;
      }

      .cls-4 {
        fill: black;
      }
    </style>
    <mask id="mask">
      <rect class="cls-3" width="100%" height="100%"/>
      <path class="cls-4" d="M26.169,275.571L384.433,44.452l77.021,181.456Z"/>
    </mask>
  </defs>
  <path id="Poligono_1" data-name="Poligono 1" class="cls-1" d="M225.594,10c116.86,0,211.594,98.5,211.594,220S342.454,450,225.594,450,14,351.5,14,230,108.734,10,225.594,10Z" mask="url(#mask)"/>
  <path id="Poligono_2" data-name="Poligono 2" class="cls-2" d="M98.793,251.607L445.614,37.351l57,159.919Z"/>
  <path id="Associazione_Educativa" data-name="Associazione Educativa" class="cls-5" d="M614.778,70.023a11.849,11.849,0,0,0-1.77-3.662,6.348,6.348,0,0,0-3.418-2.014,30.626,30.626,0,0,0-6.652-.854q-4.275-.183-11.475-0.183-6.226,0-10.01.183a24.614,24.614,0,0,0-5.92.854A6.05,6.05,0,0,0,572.42,66.3a12.256,12.256,0,0,0-1.709,3.357L522.005,209.793a39.761,39.761,0,0,0-1.831,6.836,4.768,4.768,0,0,0,.854,3.967q1.219,1.405,4.395,1.77a81.273,81.273,0,0,0,8.789.366q5.247,0,8.484-.244a18.814,18.814,0,0,0,5-.915,5.234,5.234,0,0,0,2.563-1.831,9.866,9.866,0,0,0,1.282-2.869l10.01-30.884h59.326l10.62,31.739a8.291,8.291,0,0,0,1.221,2.563,4.827,4.827,0,0,0,2.563,1.526,24,24,0,0,0,5.31.732q3.48,0.183,9.705.183,5.979,0,9.4-.305t4.761-1.587a4.2,4.2,0,0,0,.977-3.845,42.664,42.664,0,0,0-1.832-6.958Zm-1.342,91.309h-44.8l22.339-67.139H591.1Zm131.425,12.878a30.5,30.5,0,0,0-6.1-9.338,36.987,36.987,0,0,0-8.606-6.592,89.466,89.466,0,0,0-9.765-4.7q-4.944-2.015-9.766-3.724a68.774,68.774,0,0,1-8.606-3.662,21.213,21.213,0,0,1-6.1-4.516,9.107,9.107,0,0,1-2.32-6.348,10.871,10.871,0,0,1,.977-4.578,10.278,10.278,0,0,1,2.93-3.723,13.7,13.7,0,0,1,5-2.441,26.942,26.942,0,0,1,7.2-.855,38.8,38.8,0,0,1,10.437,1.282,68.5,68.5,0,0,1,8.056,2.747,61.781,61.781,0,0,1,5.8,2.746,8.316,8.316,0,0,0,3.418,1.282,3.323,3.323,0,0,0,1.709-.427,2.929,2.929,0,0,0,1.159-1.648,14.061,14.061,0,0,0,.611-3.3q0.183-2.074.183-5.371,0-2.806-.183-4.7t-0.428-3.174a7.825,7.825,0,0,0-.732-2.2,6.1,6.1,0,0,0-1.648-1.831,21.822,21.822,0,0,0-3.845-2.2,41.709,41.709,0,0,0-6.592-2.381,72.973,72.973,0,0,0-8.728-1.831,66.23,66.23,0,0,0-9.949-.732,62.127,62.127,0,0,0-18.493,2.563,41.63,41.63,0,0,0-13.977,7.2,31.181,31.181,0,0,0-8.79,11.169,33.454,33.454,0,0,0-3.051,14.343,34.6,34.6,0,0,0,2.258,13.184,29.929,29.929,0,0,0,5.981,9.4,36.7,36.7,0,0,0,8.423,6.592,88.024,88.024,0,0,0,9.644,4.761q4.944,2.076,9.643,3.784a69.291,69.291,0,0,1,8.423,3.662,20.107,20.107,0,0,1,5.982,4.578,9.322,9.322,0,0,1,2.258,6.286,12.4,12.4,0,0,1-1.221,5.616,10.347,10.347,0,0,1-3.6,4.028,18.587,18.587,0,0,1-5.615,2.441,28.95,28.95,0,0,1-7.385.855,40.25,40.25,0,0,1-11.78-1.587,69,69,0,0,1-9.094-3.418q-3.909-1.832-6.531-3.357a9.121,9.121,0,0,0-3.967-1.526,3.593,3.593,0,0,0-1.831.427,3.2,3.2,0,0,0-1.221,1.709,14.453,14.453,0,0,0-.732,3.418,51.715,51.715,0,0,0-.245,5.677,33.692,33.692,0,0,0,.733,8.117,8.5,8.5,0,0,0,2.075,4.029,18.039,18.039,0,0,0,4.272,2.746,51.915,51.915,0,0,0,7.325,2.869,70.681,70.681,0,0,0,9.948,2.319,71.662,71.662,0,0,0,11.658.916,70.787,70.787,0,0,0,18.8-2.381,44.306,44.306,0,0,0,15.015-7.141,32.562,32.562,0,0,0,9.826-11.841,36.628,36.628,0,0,0,3.479-16.357A32.685,32.685,0,0,0,744.861,174.209Zm83.556,0a30.521,30.521,0,0,0-6.1-9.338,37.008,37.008,0,0,0-8.606-6.592,89.569,89.569,0,0,0-9.766-4.7q-4.944-2.015-9.765-3.724a68.71,68.71,0,0,1-8.606-3.662,21.2,21.2,0,0,1-6.1-4.516,9.106,9.106,0,0,1-2.319-6.348,10.87,10.87,0,0,1,.976-4.578,10.289,10.289,0,0,1,2.93-3.723,13.72,13.72,0,0,1,5-2.441,26.947,26.947,0,0,1,7.2-.855,38.8,38.8,0,0,1,10.437,1.282,68.517,68.517,0,0,1,8.057,2.747,61.871,61.871,0,0,1,5.8,2.746,8.321,8.321,0,0,0,3.418,1.282,3.321,3.321,0,0,0,1.709-.427,2.929,2.929,0,0,0,1.16-1.648,14.068,14.068,0,0,0,.61-3.3q0.183-2.074.183-5.371,0-2.806-.183-4.7t-0.427-3.174a7.793,7.793,0,0,0-.733-2.2,6.1,6.1,0,0,0-1.648-1.831,21.822,21.822,0,0,0-3.845-2.2,41.709,41.709,0,0,0-6.592-2.381,72.973,72.973,0,0,0-8.728-1.831,66.207,66.207,0,0,0-9.948-.732,62.134,62.134,0,0,0-18.494,2.563,41.64,41.64,0,0,0-13.977,7.2,31.179,31.179,0,0,0-8.789,11.169,33.455,33.455,0,0,0-3.052,14.343,34.614,34.614,0,0,0,2.258,13.184,29.931,29.931,0,0,0,5.982,9.4,36.658,36.658,0,0,0,8.423,6.592,88.01,88.01,0,0,0,9.643,4.761q4.944,2.076,9.644,3.784a69.359,69.359,0,0,1,8.423,3.662,20.114,20.114,0,0,1,5.981,4.578,9.322,9.322,0,0,1,2.258,6.286,12.416,12.416,0,0,1-1.22,5.616,10.355,10.355,0,0,1-3.6,4.028,18.582,18.582,0,0,1-5.616,2.441,28.945,28.945,0,0,1-7.385.855,40.255,40.255,0,0,1-11.78-1.587,69.107,69.107,0,0,1-9.094-3.418q-3.908-1.832-6.531-3.357a9.117,9.117,0,0,0-3.967-1.526,3.6,3.6,0,0,0-1.831.427,3.212,3.212,0,0,0-1.221,1.709,14.453,14.453,0,0,0-.732,3.418,52.008,52.008,0,0,0-.244,5.677,33.7,33.7,0,0,0,.732,8.117,8.513,8.513,0,0,0,2.075,4.029,18.049,18.049,0,0,0,4.273,2.746,51.848,51.848,0,0,0,7.324,2.869,70.73,70.73,0,0,0,9.949,2.319,71.644,71.644,0,0,0,11.658.916,70.785,70.785,0,0,0,18.8-2.381,44.288,44.288,0,0,0,15.015-7.141,32.564,32.564,0,0,0,9.827-11.841,36.641,36.641,0,0,0,3.479-16.357A32.685,32.685,0,0,0,828.417,174.209Zm115.755-37.658a48.58,48.58,0,0,0-10.437-18.921,44.418,44.418,0,0,0-17.761-11.658q-10.743-3.965-25.39-3.967-15.015,0-26.184,4.516a49.822,49.822,0,0,0-18.616,12.757,53.608,53.608,0,0,0-11.17,19.775,82.5,82.5,0,0,0-3.723,25.452,88.06,88.06,0,0,0,3.418,25.635,48.143,48.143,0,0,0,10.5,18.921,45.439,45.439,0,0,0,17.822,11.718q10.741,4.029,25.269,4.029,15.015,0,26.245-4.517a49.386,49.386,0,0,0,18.677-12.817A53.587,53.587,0,0,0,943.928,187.7a83.175,83.175,0,0,0,3.662-25.39A88.571,88.571,0,0,0,944.172,136.551ZM914.387,178.97a33.468,33.468,0,0,1-4.883,11.536,21.629,21.629,0,0,1-8.422,7.263,27.262,27.262,0,0,1-12.085,2.5,26.632,26.632,0,0,1-12.7-2.746,20.636,20.636,0,0,1-8.117-7.752,36.672,36.672,0,0,1-4.334-11.779,76.335,76.335,0,0,1-1.343-14.832,65.631,65.631,0,0,1,1.648-15.442,35.056,35.056,0,0,1,4.944-11.6,21.483,21.483,0,0,1,8.423-7.325,26.985,26.985,0,0,1,11.963-2.5q7.69,0,12.756,2.807a21.707,21.707,0,0,1,8.118,7.813,34.921,34.921,0,0,1,4.333,11.78,79.869,79.869,0,0,1,1.282,14.831A68.045,68.045,0,0,1,914.387,178.97Zm123.673,14.954a28.032,28.032,0,0,0-.67-4.212,4.349,4.349,0,0,0-1.16-2.258,2.773,2.773,0,0,0-1.83-.61c-1.06,0-2.36.631-3.91,1.892s-3.46,2.666-5.73,4.211a44.56,44.56,0,0,1-8,4.212,28.545,28.545,0,0,1-10.93,1.892,24.911,24.911,0,0,1-10.921-2.259,19.8,19.8,0,0,1-7.813-6.774,32.97,32.97,0,0,1-4.7-11.231,67.743,67.743,0,0,1-1.587-15.5q0-17.822,6.347-27.038t18.313-9.217a29,29,0,0,1,10.5,1.709,40.881,40.881,0,0,1,7.56,3.784q3.18,2.078,5.5,3.785a7.5,7.5,0,0,0,4.39,1.709q1.95,0,3.18-2.869t1.22-9.949c0-2.033-.06-3.763-0.19-5.188a31.6,31.6,0,0,0-.48-3.6,7.761,7.761,0,0,0-.86-2.38,13.169,13.169,0,0,0-1.89-2.258,22.44,22.44,0,0,0-4.58-3.174,47.4,47.4,0,0,0-7.32-3.3,55.758,55.758,0,0,0-8.79-2.32,53.684,53.684,0,0,0-9.58-.854,61.7,61.7,0,0,0-21.977,3.784,45.542,45.542,0,0,0-17.334,11.6,54.031,54.031,0,0,0-11.414,19.714q-4.092,11.9-4.089,28.259a86.027,86.027,0,0,0,3.357,25.147,50.708,50.708,0,0,0,9.948,18.616,41.789,41.789,0,0,0,16.3,11.535,59.312,59.312,0,0,0,22.282,3.907,60.349,60.349,0,0,0,10.92-.977,65.6,65.6,0,0,0,9.83-2.563,49.256,49.256,0,0,0,8.05-3.6,26.962,26.962,0,0,0,5.01-3.418,8.833,8.833,0,0,0,1.89-2.319,10.618,10.618,0,0,0,.73-2.38,29.254,29.254,0,0,0,.49-3.6q0.18-2.135.18-5.31Q1038.3,196.487,1038.06,193.924Zm37.67-84.717a3.31,3.31,0,0,0-.73-2.136,5.768,5.768,0,0,0-2.5-1.587,21.067,21.067,0,0,0-4.7-1.038,75.9,75.9,0,0,0-14.89,0,20.937,20.937,0,0,0-4.7,1.038,5.81,5.81,0,0,0-2.51,1.587,3.366,3.366,0,0,0-.73,2.136V217.85a3.364,3.364,0,0,0,.73,2.136,5.428,5.428,0,0,0,2.51,1.526,21.663,21.663,0,0,0,4.7.915q2.925,0.3,7.44.305c3.01,0,5.5-.1,7.45-0.305a21.789,21.789,0,0,0,4.7-.915,5.388,5.388,0,0,0,2.5-1.526,3.308,3.308,0,0,0,.73-2.136V109.207Zm-1.34-49.5q-3.66-3.479-13.92-3.479-10.365,0-14.09,3.6t-3.73,12.878q0,8.912,3.6,12.329t13.98,3.418q10.26,0,14.04-3.54t3.78-12.817Q1078.05,63.188,1074.39,59.708Zm107.23,85.266a62.791,62.791,0,0,0-2.68-19.41,29.957,29.957,0,0,0-8.55-13.366,37,37,0,0,0-14.95-7.691,83.581,83.581,0,0,0-21.91-2.5,82.716,82.716,0,0,0-13.98,1.16,92.457,92.457,0,0,0-12.51,2.99,69.8,69.8,0,0,0-10.01,3.968,22.636,22.636,0,0,0-5.98,3.906,9.041,9.041,0,0,0-2.32,3.967,23.125,23.125,0,0,0-.61,5.982,33.516,33.516,0,0,0,.36,5.126,17.02,17.02,0,0,0,1.04,3.907,6.261,6.261,0,0,0,1.71,2.441,3.623,3.623,0,0,0,2.38.855,11.3,11.3,0,0,0,5.06-1.709c2.08-1.139,4.66-2.4,7.76-3.785a78.965,78.965,0,0,1,10.68-3.784,50.542,50.542,0,0,1,13.73-1.709,33.92,33.92,0,0,1,9.83,1.221,14.07,14.07,0,0,1,6.34,3.784,14.909,14.909,0,0,1,3.42,6.409,34.7,34.7,0,0,1,1.04,8.972V152.3h-10.62a131.161,131.161,0,0,0-25.51,2.2,55.214,55.214,0,0,0-18.37,6.775,30.227,30.227,0,0,0-11.11,11.6,34.725,34.725,0,0,0-3.73,16.54,37.631,37.631,0,0,0,2.93,15.381,30.271,30.271,0,0,0,8.24,11.047,35.8,35.8,0,0,0,12.58,6.714,53.442,53.442,0,0,0,15.93,2.259,44.489,44.489,0,0,0,19.1-4.029,49.484,49.484,0,0,0,15.32-11.23v8.667a3.513,3.513,0,0,0,1.04,2.685,6.859,6.859,0,0,0,3.54,1.4,72.816,72.816,0,0,0,15.75,0,8.363,8.363,0,0,0,3.84-1.4,3.258,3.258,0,0,0,1.22-2.685V144.974Zm-30.15,45.166a49.31,49.31,0,0,1-11.05,9.643,22.515,22.515,0,0,1-11.9,3.3q-7.695,0-12.02-3.906t-4.34-10.742a15.985,15.985,0,0,1,1.53-7.141,13.574,13.574,0,0,1,4.82-5.311,24.4,24.4,0,0,1,8.55-3.3,62.831,62.831,0,0,1,12.69-1.1h11.72V190.14Zm117.97,13.244a12.736,12.736,0,0,0-1.04-3.723,3.836,3.836,0,0,0-1.64-1.831,4.653,4.653,0,0,0-2.08-.488h-42.97l40.53-62.866c0.81-1.3,1.53-2.522,2.14-3.663a17.533,17.533,0,0,0,1.4-3.417,24.84,24.84,0,0,0,.73-3.6,34.594,34.594,0,0,0,.25-4.333v-5.982a18.226,18.226,0,0,0-.43-4.272,6.943,6.943,0,0,0-1.22-2.686,4.025,4.025,0,0,0-2.02-1.342,10.261,10.261,0,0,0-2.93-.367h-66.52a3.917,3.917,0,0,0-3.91,2.625,14.413,14.413,0,0,0-.92,3.784,48.64,48.64,0,0,0-.3,5.921q0,6.471,1.4,9.4t3.73,2.93h38.57l-40.77,62.988a36.419,36.419,0,0,0-2.38,3.784,22.075,22.075,0,0,0-1.47,3.357,16.242,16.242,0,0,0-.73,3.418,39.527,39.527,0,0,0-.18,3.967V212.6q0,5.005,1.77,7.2a6.125,6.125,0,0,0,5.06,2.2h71.17a4.423,4.423,0,0,0,2.2-.549,3.952,3.952,0,0,0,1.59-2.014,17.221,17.221,0,0,0,.97-3.968,41.6,41.6,0,0,0,.37-6.042A40.108,40.108,0,0,0,1269.44,203.384Zm35.52-94.177a3.31,3.31,0,0,0-.73-2.136,5.768,5.768,0,0,0-2.5-1.587,21.067,21.067,0,0,0-4.7-1.038,75.9,75.9,0,0,0-14.89,0,20.808,20.808,0,0,0-4.7,1.038,5.81,5.81,0,0,0-2.51,1.587,3.366,3.366,0,0,0-.73,2.136V217.85a3.364,3.364,0,0,0,.73,2.136,5.428,5.428,0,0,0,2.51,1.526,21.539,21.539,0,0,0,4.7.915q2.925,0.3,7.44.305c3.01,0,5.5-.1,7.45-0.305a21.789,21.789,0,0,0,4.7-.915,5.388,5.388,0,0,0,2.5-1.526,3.308,3.308,0,0,0,.73-2.136V109.207Zm-1.34-49.5q-3.66-3.479-13.92-3.479-10.365,0-14.09,3.6t-3.73,12.878q0,8.912,3.6,12.329t13.98,3.418c6.84,0,11.51-1.179,14.04-3.54s3.78-6.632,3.78-12.817Q1307.28,63.188,1303.62,59.708Zm121.5,76.843a48.585,48.585,0,0,0-10.44-18.921,44.414,44.414,0,0,0-17.76-11.658q-10.74-3.965-25.39-3.967-15.015,0-26.19,4.516a49.831,49.831,0,0,0-18.61,12.757,53.51,53.51,0,0,0-11.17,19.775,82.6,82.6,0,0,0-3.72,25.452,88.038,88.038,0,0,0,3.41,25.635,48.171,48.171,0,0,0,10.5,18.921,45.453,45.453,0,0,0,17.82,11.718q10.74,4.029,25.27,4.029,15.015,0,26.25-4.517a49.368,49.368,0,0,0,18.67-12.817,53.478,53.478,0,0,0,11.11-19.776,83.232,83.232,0,0,0,3.67-25.39A88.841,88.841,0,0,0,1425.12,136.551Zm-29.79,42.419a33.465,33.465,0,0,1-4.88,11.536,21.7,21.7,0,0,1-8.42,7.263,27.285,27.285,0,0,1-12.09,2.5,26.577,26.577,0,0,1-12.69-2.746,20.611,20.611,0,0,1-8.12-7.752,36.676,36.676,0,0,1-4.34-11.779,76.816,76.816,0,0,1-1.34-14.832,65.52,65.52,0,0,1,1.65-15.442,35.22,35.22,0,0,1,4.94-11.6,21.509,21.509,0,0,1,8.43-7.325,26.944,26.944,0,0,1,11.96-2.5q7.695,0,12.76,2.807a21.693,21.693,0,0,1,8.11,7.813,34.9,34.9,0,0,1,4.34,11.78,80.306,80.306,0,0,1,1.28,14.831A67.865,67.865,0,0,1,1395.33,178.97Zm144.75-28.381a85.982,85.982,0,0,0-2.07-20.264,40.567,40.567,0,0,0-6.78-14.709,32.745,32.745,0,0,0-12.33-9.949q-7.635-3.662-18.74-3.662a41.524,41.524,0,0,0-19.47,4.883,69.2,69.2,0,0,0-18.37,14.648V108.963a3.737,3.737,0,0,0-.61-2.136,4.516,4.516,0,0,0-2.01-1.526,14.777,14.777,0,0,0-3.97-.916,56.84,56.84,0,0,0-6.47-.305,53.918,53.918,0,0,0-6.29.305,17.735,17.735,0,0,0-4.09.916,4.456,4.456,0,0,0-2.19,1.526,3.737,3.737,0,0,0-.61,2.136V217.85a3.308,3.308,0,0,0,.73,2.136,5.388,5.388,0,0,0,2.5,1.526,21.789,21.789,0,0,0,4.7.915c1.95,0.2,4.44.305,7.45,0.305s5.49-.1,7.44-0.305a21.663,21.663,0,0,0,4.7-.915,5.428,5.428,0,0,0,2.51-1.526,3.364,3.364,0,0,0,.73-2.136V145.462a63.859,63.859,0,0,1,12.45-12.451q5.985-4.272,11.84-4.273a17.72,17.72,0,0,1,8.12,1.77,14.918,14.918,0,0,1,5.67,5,24.379,24.379,0,0,1,3.36,7.752,52.562,52.562,0,0,1,1.16,12.451V217.85a3.364,3.364,0,0,0,.73,2.136,5.354,5.354,0,0,0,2.45,1.526,20.6,20.6,0,0,0,4.69.915q3,0.3,7.51.305,4.4,0,7.39-.305a20.816,20.816,0,0,0,4.7-.915,5.37,5.37,0,0,0,2.44-1.526,3.308,3.308,0,0,0,.73-2.136V150.589Zm113.41,4.761a73.412,73.412,0,0,0-2.93-21.241,45.015,45.015,0,0,0-9.15-16.906,42.169,42.169,0,0,0-15.93-11.17q-9.7-4.028-23.38-4.028a60.234,60.234,0,0,0-23.25,4.272,47.24,47.24,0,0,0-17.52,12.39,55.061,55.061,0,0,0-10.99,19.776,84.666,84.666,0,0,0-3.78,26.184q0,15.261,3.6,26.611a46.12,46.12,0,0,0,10.93,18.8,45.253,45.253,0,0,0,18.25,11.109,80.1,80.1,0,0,0,25.45,3.662,104.654,104.654,0,0,0,15.13-1.038,124.212,124.212,0,0,0,12.58-2.441,68.434,68.434,0,0,0,9.03-2.869,14.82,14.82,0,0,0,4.33-2.319,8.635,8.635,0,0,0,1.29-1.77,8.146,8.146,0,0,0,.73-2.259,29.175,29.175,0,0,0,.36-3.235c0.08-1.26.13-2.786,0.13-4.577,0-2.033-.06-3.723-0.19-5.066a10.023,10.023,0,0,0-.67-3.113,3.145,3.145,0,0,0-1.22-1.526,3.6,3.6,0,0,0-1.83-.427,13.693,13.693,0,0,0-4.76,1.16c-1.95.774-4.42,1.629-7.39,2.563a93.887,93.887,0,0,1-10.55,2.564,76.633,76.633,0,0,1-14.17,1.159,39.716,39.716,0,0,1-13.61-2.075,22.856,22.856,0,0,1-9.27-6.042,24.126,24.126,0,0,1-5.25-9.644,45.193,45.193,0,0,1-1.65-12.634h66.28a8.972,8.972,0,0,0,6.9-2.686q2.505-2.683,2.5-8.3V155.35Zm-75.68-3.907a43.536,43.536,0,0,1,1.77-10.8,27.117,27.117,0,0,1,4.39-8.789,20.971,20.971,0,0,1,7.21-5.92,22.218,22.218,0,0,1,10.19-2.2q11.6,0,17.15,7.386t5.19,20.324h-45.9Zm227.62,52.063a15,15,0,0,0-.91-3.845,4.946,4.946,0,0,0-1.53-2.136,3.333,3.333,0,0,0-2.01-.671h-56.89V152.3h47.73a3.547,3.547,0,0,0,2.02-.61,4.421,4.421,0,0,0,1.52-2.015,14.268,14.268,0,0,0,.92-3.723,56.777,56.777,0,0,0,0-11.658,14.423,14.423,0,0,0-.92-3.784,4.887,4.887,0,0,0-1.52-2.075,3.34,3.34,0,0,0-2.02-.671h-47.73V89.188h56.4a3.069,3.069,0,0,0,1.95-.671,5.215,5.215,0,0,0,1.47-2.136,15.424,15.424,0,0,0,.91-3.845,45.26,45.26,0,0,0,.31-5.8,47.66,47.66,0,0,0-.31-6.043,16.475,16.475,0,0,0-.91-3.906,4.727,4.727,0,0,0-1.47-2.136,3.277,3.277,0,0,0-1.95-.61h-78.86a9.976,9.976,0,0,0-6.77,2.38q-2.745,2.38-2.75,7.751v137.7q0,5.373,2.75,7.752a9.975,9.975,0,0,0,6.77,2.38h79.35a3.32,3.32,0,0,0,2.01-.671,4.937,4.937,0,0,0,1.53-2.137,14.985,14.985,0,0,0,.91-3.845A56.691,56.691,0,0,0,1805.43,203.506Zm109.6-145.813a3.572,3.572,0,0,0-.74-2.2,5.477,5.477,0,0,0-2.44-1.648,19.819,19.819,0,0,0-4.64-1.038,75.863,75.863,0,0,0-14.89,0,21.064,21.064,0,0,0-4.7,1.038,5.049,5.049,0,0,0-2.44,1.648,3.775,3.775,0,0,0-.67,2.2v58.96a59.262,59.262,0,0,0-14.77-10.925,36.636,36.636,0,0,0-16.6-3.723,45.783,45.783,0,0,0-20.51,4.394,40.268,40.268,0,0,0-14.89,12.574,59.178,59.178,0,0,0-9.1,19.775,101.1,101.1,0,0,0-3.11,26.123,105.1,105.1,0,0,0,2.44,23.01,56.468,56.468,0,0,0,7.87,19.1,40.163,40.163,0,0,0,14.04,13q8.61,4.821,21.06,4.822a42.2,42.2,0,0,0,20.45-5,69.942,69.942,0,0,0,17.63-14.038V217.85a3.7,3.7,0,0,0,.68,2.258,4.807,4.807,0,0,0,2.19,1.526,14.982,14.982,0,0,0,3.97.854c1.63,0.162,3.74.244,6.35,0.244q3.66,0,6.16-.244a14.283,14.283,0,0,0,3.97-.854,4.39,4.39,0,0,0,2.07-1.526,3.957,3.957,0,0,0,.62-2.258V57.693Zm-30.52,123.536q-3.915,4.882-7.2,8.239a41.268,41.268,0,0,1-6.41,5.432,23.417,23.417,0,0,1-6.11,2.991,20.934,20.934,0,0,1-6.16.916,17.266,17.266,0,0,1-10.5-3.052,21.763,21.763,0,0,1-6.65-8.118,41.522,41.522,0,0,1-3.6-11.535,78.558,78.558,0,0,1-1.1-13.306,62.219,62.219,0,0,1,1.28-12.634,42.456,42.456,0,0,1,3.91-11.17,21.816,21.816,0,0,1,6.95-7.995,17.72,17.72,0,0,1,10.32-2.991,21.181,21.181,0,0,1,12.63,4.394,67.7,67.7,0,0,1,12.64,12.7v36.133Zm147.07-72.266a3.308,3.308,0,0,0-.73-2.136,5.37,5.37,0,0,0-2.44-1.526,20.767,20.767,0,0,0-4.64-.916q-2.94-.3-7.45-0.305t-7.44.305a21.651,21.651,0,0,0-4.7.916,4.947,4.947,0,0,0-2.45,1.526,3.565,3.565,0,0,0-.67,2.136v72.388a70.366,70.366,0,0,1-12.63,12.451q-5.925,4.274-11.78,4.272a17.681,17.681,0,0,1-8.12-1.77,15.458,15.458,0,0,1-5.74-5,22.86,22.86,0,0,1-3.35-7.751,58.334,58.334,0,0,1-1.1-13.062V108.963a3.364,3.364,0,0,0-.73-2.136,5.428,5.428,0,0,0-2.51-1.526,21.777,21.777,0,0,0-4.7-.916q-2.925-.3-7.44-0.305-4.395,0-7.39.305a22.049,22.049,0,0,0-4.76.916,4.958,4.958,0,0,0-2.44,1.526,3.5,3.5,0,0,0-.67,2.136v66.65a90.833,90.833,0,0,0,2.01,20.813,40.261,40.261,0,0,0,6.72,14.71,32.51,32.51,0,0,0,12.33,10.01q7.62,3.662,18.86,3.662a41.224,41.224,0,0,0,19.34-4.883,69.161,69.161,0,0,0,18.38-14.649V217.85a3.737,3.737,0,0,0,.61,2.136,4.4,4.4,0,0,0,2.07,1.526,15.5,15.5,0,0,0,3.97.915,56.4,56.4,0,0,0,6.53.305,53.918,53.918,0,0,0,6.29-.305,16.387,16.387,0,0,0,4.02-.915,4.481,4.481,0,0,0,2.14-1.526,3.737,3.737,0,0,0,.61-2.136V108.963Zm96.26,84.961a26.8,26.8,0,0,0-.67-4.212,4.277,4.277,0,0,0-1.16-2.258,2.773,2.773,0,0,0-1.83-.61c-1.06,0-2.36.631-3.91,1.892s-3.46,2.666-5.73,4.211a44.56,44.56,0,0,1-8,4.212,28.492,28.492,0,0,1-10.92,1.892,24.946,24.946,0,0,1-10.93-2.259,19.777,19.777,0,0,1-7.81-6.774,32.95,32.95,0,0,1-4.7-11.231,67.676,67.676,0,0,1-1.59-15.5q0-17.822,6.35-27.038t18.31-9.217a29,29,0,0,1,10.5,1.709,41.31,41.31,0,0,1,7.57,3.784q3.165,2.078,5.49,3.785a7.5,7.5,0,0,0,4.39,1.709q1.95,0,3.18-2.869t1.22-9.949q0-3.049-.18-5.188a33.751,33.751,0,0,0-.49-3.6,7.761,7.761,0,0,0-.86-2.38,12.714,12.714,0,0,0-1.89-2.258,22.44,22.44,0,0,0-4.58-3.174,46.977,46.977,0,0,0-7.32-3.3,55.758,55.758,0,0,0-8.79-2.32,53.6,53.6,0,0,0-9.58-.854,61.756,61.756,0,0,0-21.98,3.784,45.543,45.543,0,0,0-17.33,11.6,53.983,53.983,0,0,0-11.41,19.714q-4.1,11.9-4.09,28.259a86.376,86.376,0,0,0,3.35,25.147,50.815,50.815,0,0,0,9.95,18.616,41.835,41.835,0,0,0,16.3,11.535,59.294,59.294,0,0,0,22.28,3.907,60.349,60.349,0,0,0,10.92-.977,65.6,65.6,0,0,0,9.83-2.563,49.766,49.766,0,0,0,8.06-3.6,26.811,26.811,0,0,0,5-3.418,8.629,8.629,0,0,0,1.89-2.319,11.117,11.117,0,0,0,.74-2.38,31.568,31.568,0,0,0,.48-3.6c0.13-1.423.19-3.193,0.19-5.31C2128.09,197.83,2128,195.633,2127.84,193.924Zm99.94-48.95a62.474,62.474,0,0,0-2.69-19.41,29.94,29.94,0,0,0-8.54-13.366,37.039,37.039,0,0,0-14.96-7.691,91.983,91.983,0,0,0-35.89-1.342,93.189,93.189,0,0,0-12.51,2.99,70.751,70.751,0,0,0-10.01,3.968,22.81,22.81,0,0,0-5.98,3.906,9.237,9.237,0,0,0-2.32,3.967,23.125,23.125,0,0,0-.61,5.982,32.231,32.231,0,0,0,.37,5.126,17.052,17.052,0,0,0,1.03,3.907,6.261,6.261,0,0,0,1.71,2.441,3.642,3.642,0,0,0,2.38.855,11.369,11.369,0,0,0,5.07-1.709q3.12-1.709,7.75-3.785a78.965,78.965,0,0,1,10.68-3.784A50.618,50.618,0,0,1,2177,125.32a33.847,33.847,0,0,1,9.82,1.221,14.106,14.106,0,0,1,6.35,3.784,14.909,14.909,0,0,1,3.42,6.409,34.7,34.7,0,0,1,1.04,8.972V152.3h-10.62a131.342,131.342,0,0,0-25.52,2.2,55.3,55.3,0,0,0-18.37,6.775,30.3,30.3,0,0,0-11.11,11.6,34.841,34.841,0,0,0-3.72,16.54,37.631,37.631,0,0,0,2.93,15.381,30.16,30.16,0,0,0,8.24,11.047,35.845,35.845,0,0,0,12.57,6.714,53.442,53.442,0,0,0,15.93,2.259,44.534,44.534,0,0,0,19.11-4.029,49.6,49.6,0,0,0,15.32-11.23v8.667a3.507,3.507,0,0,0,1.03,2.685,6.859,6.859,0,0,0,3.54,1.4,53.111,53.111,0,0,0,8,.427,52.2,52.2,0,0,0,7.75-.427,8.409,8.409,0,0,0,3.85-1.4,3.258,3.258,0,0,0,1.22-2.685V144.974Zm-30.15,45.166a49.529,49.529,0,0,1-11.05,9.643,22.515,22.515,0,0,1-11.9,3.3q-7.695,0-12.03-3.906t-4.33-10.742a16.119,16.119,0,0,1,1.52-7.141,13.6,13.6,0,0,1,4.83-5.311,24.262,24.262,0,0,1,8.54-3.3,62.937,62.937,0,0,1,12.7-1.1h11.72V190.14Zm79.25-85.328V80.521a3.563,3.563,0,0,0-.73-2.2,5.476,5.476,0,0,0-2.44-1.648,18.531,18.531,0,0,0-4.7-.977q-3-.3-7.51-0.305-4.395,0-7.39.305a19.491,19.491,0,0,0-4.76.977,5.048,5.048,0,0,0-2.44,1.648,3.776,3.776,0,0,0-.67,2.2v24.292H2233.3a3.811,3.811,0,0,0-2.14.611,4.5,4.5,0,0,0-1.52,2.014,14.536,14.536,0,0,0-.92,3.845,50.226,50.226,0,0,0-.3,5.982c0,4.476.4,7.671,1.22,9.582s1.99,2.869,3.54,2.869h13.06V185.5a63.754,63.754,0,0,0,2.08,17.334,29.682,29.682,0,0,0,6.47,12.146,26.348,26.348,0,0,0,11.1,7.141,48.767,48.767,0,0,0,15.87,2.319,62.565,62.565,0,0,0,6.78-.366,52.267,52.267,0,0,0,6.22-1.037,32.963,32.963,0,0,0,5.07-1.587,8.75,8.75,0,0,0,3.3-2.2,9.286,9.286,0,0,0,1.7-4.028,39.991,39.991,0,0,0,.61-8.118,42.918,42.918,0,0,0-.3-5.615,26.664,26.664,0,0,0-.67-3.479,2.9,2.9,0,0,0-1.04-1.709,2.572,2.572,0,0,0-1.4-.427,5.105,5.105,0,0,0-1.9.427c-0.69.286-1.54,0.611-2.56,0.977a28.126,28.126,0,0,1-3.48.976,20.551,20.551,0,0,1-4.39.428q-7.215,0-10.01-4.456-2.82-4.455-2.81-13.367V129.715h48.95V217.85a3.308,3.308,0,0,0,.73,2.136,5.37,5.37,0,0,0,2.44,1.526,20.816,20.816,0,0,0,4.7.915q3,0.3,7.51.305,4.395,0,7.39-.305a20.816,20.816,0,0,0,4.7-.915,5.427,5.427,0,0,0,2.44-1.526,3.308,3.308,0,0,0,.73-2.136V113.357q0-4.148-2.01-6.347t-7.15-2.2h-70.43Zm78.37-45.1q-3.66-3.479-13.92-3.479-10.365,0-14.1,3.6-3.72,3.6-3.72,12.878,0,8.912,3.6,12.329t13.98,3.418c6.84,0,11.51-1.179,14.04-3.54s3.78-6.632,3.78-12.817Q2358.91,63.188,2355.25,59.708Zm115.41,47a4.456,4.456,0,0,0-2.19-1.526,17.027,17.027,0,0,0-4.46-.855q-2.865-.243-7.38-0.244a74.29,74.29,0,0,0-7.51.305,23.65,23.65,0,0,0-4.58.855,4.939,4.939,0,0,0-2.5,1.587,6.69,6.69,0,0,0-1.16,2.5l-24.42,79.956-0.73,3.052-0.73-3.052-24.78-79.956a9.654,9.654,0,0,0-1.22-2.5,4.651,4.651,0,0,0-2.5-1.587,25.573,25.573,0,0,0-4.83-.855c-2.03-.2-4.72-0.305-8.05-0.305-3.01,0-5.52.082-7.51,0.244a19.125,19.125,0,0,0-4.7.855,4.932,4.932,0,0,0-2.38,1.526,3.5,3.5,0,0,0-.67,2.136c0,0.488.02,1.018,0.06,1.587a21.538,21.538,0,0,0,.49,2.807c0.28,1.3.67,2.768,1.16,4.395l32.71,98.511a9.754,9.754,0,0,0,1.65,3.234,6.836,6.836,0,0,0,3.36,2.015,29.461,29.461,0,0,0,6.41,1.037q4.08,0.3,10.56.305,6.585,0,10.68-.244a28.845,28.845,0,0,0,6.47-.976,6.882,6.882,0,0,0,3.41-2.014,9.668,9.668,0,0,0,1.65-3.357l32.72-98.511c0.32-1.139.59-2.155,0.79-3.052s0.37-1.688.49-2.38a18.866,18.866,0,0,0,.24-1.892q0.06-.854.06-1.465A3.737,3.737,0,0,0,2470.66,106.705Zm94.68,38.269a62.474,62.474,0,0,0-2.69-19.41,29.94,29.94,0,0,0-8.54-13.366,36.974,36.974,0,0,0-14.96-7.691,83.475,83.475,0,0,0-21.91-2.5,82.6,82.6,0,0,0-13.97,1.16,92.978,92.978,0,0,0-12.52,2.99,70.751,70.751,0,0,0-10.01,3.968,22.81,22.81,0,0,0-5.98,3.906,9.237,9.237,0,0,0-2.32,3.967,23.125,23.125,0,0,0-.61,5.982,32.231,32.231,0,0,0,.37,5.126,16.525,16.525,0,0,0,1.04,3.907,6.062,6.062,0,0,0,1.71,2.441,3.623,3.623,0,0,0,2.38.855,11.3,11.3,0,0,0,5.06-1.709q3.12-1.709,7.75-3.785a79.459,79.459,0,0,1,10.68-3.784,50.618,50.618,0,0,1,13.74-1.709,33.847,33.847,0,0,1,9.82,1.221,14.106,14.106,0,0,1,6.35,3.784,14.909,14.909,0,0,1,3.42,6.409,34.7,34.7,0,0,1,1.04,8.972V152.3h-10.62a131.342,131.342,0,0,0-25.52,2.2,55.382,55.382,0,0,0-18.37,6.775,30.374,30.374,0,0,0-11.11,11.6,34.841,34.841,0,0,0-3.72,16.54,37.631,37.631,0,0,0,2.93,15.381,30.16,30.16,0,0,0,8.24,11.047,35.845,35.845,0,0,0,12.57,6.714,53.442,53.442,0,0,0,15.93,2.259,44.534,44.534,0,0,0,19.11-4.029,49.484,49.484,0,0,0,15.32-11.23v8.667a3.478,3.478,0,0,0,1.04,2.685,6.859,6.859,0,0,0,3.54,1.4,52.866,52.866,0,0,0,7.99.427,52.2,52.2,0,0,0,7.75-.427,8.409,8.409,0,0,0,3.85-1.4,3.258,3.258,0,0,0,1.22-2.685V144.974Zm-30.15,45.166a49.529,49.529,0,0,1-11.05,9.643,22.515,22.515,0,0,1-11.9,3.3q-7.695,0-12.03-3.906t-4.33-10.742a15.985,15.985,0,0,1,1.53-7.141,13.5,13.5,0,0,1,4.82-5.311,24.339,24.339,0,0,1,8.54-3.3,62.937,62.937,0,0,1,12.7-1.1h11.72V190.14Z"/>
  <path id="Laboratorio_Tecnico_ODV" data-name="Laboratorio Tecnico ODV" class="cls-6" d="M606.7,380.408a16.582,16.582,0,0,0-.916-4.029,4.907,4.907,0,0,0-1.526-2.2,3.526,3.526,0,0,0-2.136-.671H552.438V246.436a3.406,3.406,0,0,0-.793-2.2,5.6,5.6,0,0,0-2.624-1.587,25.708,25.708,0,0,0-4.883-.976,82.913,82.913,0,0,0-15.564,0,25.787,25.787,0,0,0-4.944.976,5.594,5.594,0,0,0-2.625,1.587,3.4,3.4,0,0,0-.793,2.2V389.868q0,5.373,2.746,7.752a9.982,9.982,0,0,0,6.775,2.38h72.388a3.32,3.32,0,0,0,2.136-.732,5.366,5.366,0,0,0,1.526-2.381,18.7,18.7,0,0,0,.916-4.15A62.449,62.449,0,0,0,606.7,380.408Zm97.543-57.434a62.513,62.513,0,0,0-2.685-19.41,29.906,29.906,0,0,0-8.545-13.366,36.981,36.981,0,0,0-14.954-7.691,91.977,91.977,0,0,0-35.889-1.342,92.78,92.78,0,0,0-12.512,2.99,70.368,70.368,0,0,0-10.01,3.968,22.819,22.819,0,0,0-5.981,3.906A9.185,9.185,0,0,0,611.347,296a23.208,23.208,0,0,0-.611,5.982,32.848,32.848,0,0,0,.367,5.126,16.827,16.827,0,0,0,1.037,3.907,6.2,6.2,0,0,0,1.709,2.441,3.633,3.633,0,0,0,2.38.855,11.334,11.334,0,0,0,5.066-1.709q3.114-1.709,7.752-3.785a79.179,79.179,0,0,1,10.681-3.784,50.57,50.57,0,0,1,13.733-1.709,33.9,33.9,0,0,1,9.827,1.221,14.117,14.117,0,0,1,6.347,3.784,14.959,14.959,0,0,1,3.418,6.409,34.659,34.659,0,0,1,1.038,8.972V330.3h-10.62a131.251,131.251,0,0,0-25.513,2.2,55.3,55.3,0,0,0-18.372,6.775,30.272,30.272,0,0,0-11.108,11.6,34.806,34.806,0,0,0-3.723,16.54,37.565,37.565,0,0,0,2.93,15.381,30.19,30.19,0,0,0,8.239,11.047,35.838,35.838,0,0,0,12.574,6.714,53.442,53.442,0,0,0,15.93,2.259,44.507,44.507,0,0,0,19.1-4.029,49.484,49.484,0,0,0,15.32-11.23v8.667a3.5,3.5,0,0,0,1.037,2.685,6.867,6.867,0,0,0,3.54,1.4,53,53,0,0,0,8,.427,52.242,52.242,0,0,0,7.751-.427,8.363,8.363,0,0,0,3.845-1.4,3.25,3.25,0,0,0,1.221-2.685V322.974ZM674.091,368.14a49.37,49.37,0,0,1-11.048,9.643,22.518,22.518,0,0,1-11.9,3.3q-7.691,0-12.024-3.906t-4.334-10.742a16.011,16.011,0,0,1,1.526-7.141,13.58,13.58,0,0,1,4.822-5.311,24.345,24.345,0,0,1,8.545-3.295,62.9,62.9,0,0,1,12.695-1.1h11.719V368.14Zm150.244-51.209a58.021,58.021,0,0,0-7.752-19.1,39.649,39.649,0,0,0-13.733-13q-8.423-4.821-20.508-4.822a48.679,48.679,0,0,0-9.277.854,38.111,38.111,0,0,0-8.545,2.747,51.519,51.519,0,0,0-8.3,4.822,64.037,64.037,0,0,0-8.3,7.08V235.327a3.578,3.578,0,0,0-.733-2.2,5.481,5.481,0,0,0-2.5-1.648,21.041,21.041,0,0,0-4.7-1.038,75.935,75.935,0,0,0-14.893,0,20.991,20.991,0,0,0-4.7,1.038,5.474,5.474,0,0,0-2.5,1.648,3.577,3.577,0,0,0-.732,2.2V395.85a3.969,3.969,0,0,0,.61,2.258,4.451,4.451,0,0,0,2.136,1.526,15.1,15.1,0,0,0,4.029.854q2.5,0.243,6.286.244,3.663,0,6.226-.244a15.259,15.259,0,0,0,4.089-.854,4.9,4.9,0,0,0,2.2-1.526,3.722,3.722,0,0,0,.671-2.258V384.009a80.559,80.559,0,0,0,8.606,8.545,49.835,49.835,0,0,0,8.545,5.859,34.929,34.929,0,0,0,9.094,3.357,48.225,48.225,0,0,0,10.254,1.038,43.5,43.5,0,0,0,19.836-4.395,40.754,40.754,0,0,0,14.71-12.573,60.012,60.012,0,0,0,9.155-19.776,99.047,99.047,0,0,0,3.174-26.123A105.3,105.3,0,0,0,824.335,316.931ZM793.7,354.59a37.058,37.058,0,0,1-3.967,11.108,24.716,24.716,0,0,1-6.9,7.935,16.634,16.634,0,0,1-10.132,3.052,20.665,20.665,0,0,1-12.39-4.334,65.236,65.236,0,0,1-12.39-12.634V323.584a76.749,76.749,0,0,1,6.958-8.179,42.814,42.814,0,0,1,6.408-5.371,22.261,22.261,0,0,1,6.043-2.93,21.309,21.309,0,0,1,5.981-.854,17.022,17.022,0,0,1,10.315,2.991,22.286,22.286,0,0,1,6.653,8,38.376,38.376,0,0,1,3.6,11.475,84.916,84.916,0,0,1,1.038,13.428A64.718,64.718,0,0,1,793.7,354.59Zm148.182-40.039A48.605,48.605,0,0,0,931.44,295.63a44.422,44.422,0,0,0-17.762-11.658q-10.743-3.964-25.39-3.967-15.015,0-26.184,4.516a49.822,49.822,0,0,0-18.616,12.757,53.608,53.608,0,0,0-11.17,19.775,82.5,82.5,0,0,0-3.723,25.452,88.06,88.06,0,0,0,3.418,25.635,48.143,48.143,0,0,0,10.5,18.921,45.435,45.435,0,0,0,17.823,11.718q10.74,4.029,25.268,4.029,15.015,0,26.245-4.517a49.379,49.379,0,0,0,18.677-12.817A53.587,53.587,0,0,0,941.632,365.7a83.174,83.174,0,0,0,3.663-25.39A88.605,88.605,0,0,0,941.877,314.551ZM912.091,356.97a33.486,33.486,0,0,1-4.882,11.536,21.639,21.639,0,0,1-8.423,7.263,27.262,27.262,0,0,1-12.085,2.5,26.632,26.632,0,0,1-12.7-2.746,20.636,20.636,0,0,1-8.117-7.752,36.672,36.672,0,0,1-4.334-11.779,76.338,76.338,0,0,1-1.342-14.832,65.634,65.634,0,0,1,1.647-15.442,35.056,35.056,0,0,1,4.944-11.6,21.49,21.49,0,0,1,8.423-7.325,26.985,26.985,0,0,1,11.963-2.5q7.691,0,12.756,2.807a21.707,21.707,0,0,1,8.118,7.813A34.943,34.943,0,0,1,912.4,326.7a79.958,79.958,0,0,1,1.281,14.831A68.045,68.045,0,0,1,912.091,356.97Zm110.569-66.833a28.262,28.262,0,0,0-.37-3.845,10.736,10.736,0,0,0-.54-2.015,3.991,3.991,0,0,0-.98-1.342,6.77,6.77,0,0,0-2.14-1.16,24.69,24.69,0,0,0-3.42-.977,33.215,33.215,0,0,0-3.78-.61q-1.83-.183-3.42-0.183a26.235,26.235,0,0,0-6.83.915,22.67,22.67,0,0,0-6.84,3.235,45.6,45.6,0,0,0-7.2,6.287,86.715,86.715,0,0,0-8.056,10.071v-13.55a3.761,3.761,0,0,0-.611-2.136,4.49,4.49,0,0,0-2.014-1.526,14.722,14.722,0,0,0-3.967-.916,56.778,56.778,0,0,0-6.47-.305,53.8,53.8,0,0,0-6.287.305,17.59,17.59,0,0,0-4.089.916,4.47,4.47,0,0,0-2.2,1.526,3.752,3.752,0,0,0-.61,2.136V395.85a3.32,3.32,0,0,0,.732,2.136,5.385,5.385,0,0,0,2.5,1.526,21.739,21.739,0,0,0,4.7.915q2.93,0.3,7.446.305t7.447-.305a21.741,21.741,0,0,0,4.7-.915,5.4,5.4,0,0,0,2.5-1.526,3.32,3.32,0,0,0,.732-2.136V327.979a95.06,95.06,0,0,1,6.409-9.034,39.414,39.414,0,0,1,5.737-5.859,21.687,21.687,0,0,1,5.306-3.235,13.624,13.624,0,0,1,5.13-1.038,17.757,17.757,0,0,1,4.03.428q1.83,0.429,3.36.915c1.01,0.326,1.93.632,2.74,0.916a6.75,6.75,0,0,0,2.2.427,3.2,3.2,0,0,0,2.01-.61,4.327,4.327,0,0,0,1.29-2.2,23.111,23.111,0,0,0,.73-4.394q0.24-2.807.24-7.2T1022.66,290.137Zm95.14,32.837a62.492,62.492,0,0,0-2.68-19.41,29.873,29.873,0,0,0-8.55-13.366,36.931,36.931,0,0,0-14.95-7.691,83.581,83.581,0,0,0-21.91-2.5,82.716,82.716,0,0,0-13.98,1.16,92.457,92.457,0,0,0-12.51,2.99,70.272,70.272,0,0,0-10.01,3.968,22.636,22.636,0,0,0-5.98,3.906,9.138,9.138,0,0,0-2.32,3.967,23.125,23.125,0,0,0-.61,5.982,33.516,33.516,0,0,0,.36,5.126,17.02,17.02,0,0,0,1.04,3.907,6.261,6.261,0,0,0,1.71,2.441,3.623,3.623,0,0,0,2.38.855,11.369,11.369,0,0,0,5.07-1.709q3.105-1.709,7.75-3.785a78.965,78.965,0,0,1,10.68-3.784,50.542,50.542,0,0,1,13.73-1.709,33.92,33.92,0,0,1,9.83,1.221,14.16,14.16,0,0,1,6.35,3.784,15,15,0,0,1,3.41,6.409,34.7,34.7,0,0,1,1.04,8.972V330.3h-10.62a131.233,131.233,0,0,0-25.51,2.2,55.214,55.214,0,0,0-18.37,6.775,30.227,30.227,0,0,0-11.11,11.6,34.725,34.725,0,0,0-3.73,16.54,37.631,37.631,0,0,0,2.93,15.381,30.271,30.271,0,0,0,8.24,11.047,35.8,35.8,0,0,0,12.58,6.714,53.442,53.442,0,0,0,15.93,2.259,44.489,44.489,0,0,0,19.1-4.029,49.484,49.484,0,0,0,15.32-11.23v8.667a3.513,3.513,0,0,0,1.04,2.685,6.859,6.859,0,0,0,3.54,1.4,52.957,52.957,0,0,0,7.99.427,52.353,52.353,0,0,0,7.76-.427,8.317,8.317,0,0,0,3.84-1.4,3.258,3.258,0,0,0,1.22-2.685V322.974Zm-30.15,45.166a49.31,49.31,0,0,1-11.05,9.643,22.515,22.515,0,0,1-11.9,3.3q-7.7,0-12.02-3.906t-4.34-10.742a15.985,15.985,0,0,1,1.53-7.141,13.574,13.574,0,0,1,4.82-5.311,24.4,24.4,0,0,1,8.55-3.295,62.831,62.831,0,0,1,12.69-1.1h11.72V368.14Zm107.14,11.352a26.664,26.664,0,0,0-.67-3.479,2.9,2.9,0,0,0-1.04-1.709,2.572,2.572,0,0,0-1.4-.427,5.105,5.105,0,0,0-1.9.427c-0.69.286-1.54,0.611-2.56,0.977a28.126,28.126,0,0,1-3.48.976,20.551,20.551,0,0,1-4.39.428q-7.2,0-10.01-4.456t-2.81-13.367V307.715h23.8q2.325,0,3.54-2.869c0.82-1.911,1.22-5.106,1.22-9.582a50.226,50.226,0,0,0-.3-5.982,14.154,14.154,0,0,0-.92-3.845,4.434,4.434,0,0,0-1.52-2.014,3.788,3.788,0,0,0-2.14-.611h-23.68V258.521a3.565,3.565,0,0,0-.73-2.2,5.486,5.486,0,0,0-2.44-1.648,18.543,18.543,0,0,0-4.7-.976q-3-.3-7.51-0.305-4.395,0-7.39.305a19.5,19.5,0,0,0-4.76.976,5.057,5.057,0,0,0-2.44,1.648,3.778,3.778,0,0,0-.67,2.2v24.291h-12.94a3.756,3.756,0,0,0-2.13.611,4.447,4.447,0,0,0-1.53,2.014,14.536,14.536,0,0,0-.92,3.845,50.226,50.226,0,0,0-.3,5.982c0,4.476.4,7.671,1.22,9.582s1.99,2.869,3.54,2.869h13.06V363.5a63.754,63.754,0,0,0,2.08,17.334,29.682,29.682,0,0,0,6.47,12.146,26.348,26.348,0,0,0,11.1,7.141,48.767,48.767,0,0,0,15.87,2.319,62.565,62.565,0,0,0,6.78-.366,52.267,52.267,0,0,0,6.22-1.037,30.8,30.8,0,0,0,5.01-1.587,9.625,9.625,0,0,0,3.23-2.076,8.721,8.721,0,0,0,1.77-4.028,38.277,38.277,0,0,0,.67-8.24A42.918,42.918,0,0,0,1194.79,379.492Zm111.34-64.941a48.585,48.585,0,0,0-10.44-18.921,44.414,44.414,0,0,0-17.76-11.658q-10.74-3.964-25.39-3.967-15.015,0-26.19,4.516a49.831,49.831,0,0,0-18.61,12.757,53.51,53.51,0,0,0-11.17,19.775,82.291,82.291,0,0,0-3.73,25.452,88.023,88.023,0,0,0,3.42,25.635,48.171,48.171,0,0,0,10.5,18.921,45.453,45.453,0,0,0,17.82,11.718q10.74,4.029,25.27,4.029,15.015,0,26.25-4.517a49.368,49.368,0,0,0,18.67-12.817,53.478,53.478,0,0,0,11.11-19.776,83.237,83.237,0,0,0,3.66-25.39A88.857,88.857,0,0,0,1306.13,314.551Zm-29.79,42.419a33.465,33.465,0,0,1-4.88,11.536,21.7,21.7,0,0,1-8.42,7.263,27.285,27.285,0,0,1-12.09,2.5,26.577,26.577,0,0,1-12.69-2.746,20.611,20.611,0,0,1-8.12-7.752,36.676,36.676,0,0,1-4.34-11.779,76.816,76.816,0,0,1-1.34-14.832,65.52,65.52,0,0,1,1.65-15.442,35.22,35.22,0,0,1,4.94-11.6,21.509,21.509,0,0,1,8.43-7.325,26.944,26.944,0,0,1,11.96-2.5q7.695,0,12.76,2.807a21.693,21.693,0,0,1,8.11,7.813,34.9,34.9,0,0,1,4.34,11.78,80.306,80.306,0,0,1,1.28,14.831A67.865,67.865,0,0,1,1276.34,356.97Zm110.57-66.833a28.262,28.262,0,0,0-.37-3.845,9.934,9.934,0,0,0-.55-2.015,3.827,3.827,0,0,0-.97-1.342,6.77,6.77,0,0,0-2.14-1.16,25.1,25.1,0,0,0-3.42-.977,33.215,33.215,0,0,0-3.78-.61q-1.83-.183-3.42-0.183a26.235,26.235,0,0,0-6.83.915,22.725,22.725,0,0,0-6.84,3.235,45.459,45.459,0,0,0-7.2,6.287,86.286,86.286,0,0,0-8.06,10.071v-13.55a3.737,3.737,0,0,0-.61-2.136,4.516,4.516,0,0,0-2.01-1.526,14.777,14.777,0,0,0-3.97-.916,56.84,56.84,0,0,0-6.47-.305,53.918,53.918,0,0,0-6.29.305,17.612,17.612,0,0,0-4.09.916,4.456,4.456,0,0,0-2.19,1.526,3.737,3.737,0,0,0-.61,2.136V395.85a3.308,3.308,0,0,0,.73,2.136,5.388,5.388,0,0,0,2.5,1.526,21.789,21.789,0,0,0,4.7.915c1.95,0.2,4.44.305,7.45,0.305s5.49-.1,7.44-0.305a21.663,21.663,0,0,0,4.7-.915,5.428,5.428,0,0,0,2.51-1.526,3.364,3.364,0,0,0,.73-2.136V327.979a94.515,94.515,0,0,1,6.41-9.034,39.3,39.3,0,0,1,5.73-5.859,21.594,21.594,0,0,1,5.31-3.235,13.624,13.624,0,0,1,5.13-1.038,17.757,17.757,0,0,1,4.03.428q1.83,0.429,3.36.915c1.01,0.326,1.93.632,2.74,0.916a6.75,6.75,0,0,0,2.2.427,3.2,3.2,0,0,0,2.01-.61,4.327,4.327,0,0,0,1.29-2.2,23.111,23.111,0,0,0,.73-4.394q0.24-2.807.24-7.2T1386.91,290.137Zm32.73-2.93a3.31,3.31,0,0,0-.73-2.136,5.83,5.83,0,0,0-2.5-1.587,21.2,21.2,0,0,0-4.7-1.038,76.006,76.006,0,0,0-14.9,0,21.067,21.067,0,0,0-4.7,1.038,5.768,5.768,0,0,0-2.5,1.587,3.31,3.31,0,0,0-.73,2.136V395.85a3.308,3.308,0,0,0,.73,2.136,5.388,5.388,0,0,0,2.5,1.526,21.789,21.789,0,0,0,4.7.915q2.94,0.3,7.45.305t7.45-.305a21.917,21.917,0,0,0,4.7-.915,5.442,5.442,0,0,0,2.5-1.526,3.308,3.308,0,0,0,.73-2.136V287.207Zm-1.34-49.5q-3.66-3.48-13.92-3.479-10.38,0-14.1,3.6t-3.72,12.878q0,8.912,3.6,12.329t13.98,3.418q10.245,0,14.04-3.54,3.78-3.539,3.78-12.817Q1421.96,241.188,1418.3,237.708Zm121.49,76.843a48.568,48.568,0,0,0-10.43-18.921,44.414,44.414,0,0,0-17.76-11.658q-10.755-3.964-25.39-3.967-15.015,0-26.19,4.516a49.751,49.751,0,0,0-18.61,12.757,53.51,53.51,0,0,0-11.17,19.775,82.291,82.291,0,0,0-3.73,25.452,88.023,88.023,0,0,0,3.42,25.635,48.171,48.171,0,0,0,10.5,18.921,45.453,45.453,0,0,0,17.82,11.718q10.74,4.029,25.27,4.029,15.015,0,26.24-4.517a49.328,49.328,0,0,0,18.68-12.817,53.619,53.619,0,0,0,11.11-19.776,83.237,83.237,0,0,0,3.66-25.39A88.5,88.5,0,0,0,1539.79,314.551Zm-29.78,42.419a33.658,33.658,0,0,1-4.88,11.536,21.659,21.659,0,0,1-8.43,7.263,27.21,27.21,0,0,1-12.08,2.5,26.646,26.646,0,0,1-12.7-2.746,20.651,20.651,0,0,1-8.11-7.752,36.676,36.676,0,0,1-4.34-11.779,76.816,76.816,0,0,1-1.34-14.832,65.52,65.52,0,0,1,1.65-15.442,35.011,35.011,0,0,1,4.94-11.6,21.551,21.551,0,0,1,8.42-7.325,27.019,27.019,0,0,1,11.97-2.5c5.12,0,9.38.936,12.75,2.807a21.647,21.647,0,0,1,8.12,7.813,34.9,34.9,0,0,1,4.33,11.78,79.415,79.415,0,0,1,1.29,14.831A67.865,67.865,0,0,1,1510.01,356.97ZM1705.65,249a16.788,16.788,0,0,0-.91-4.089,4.938,4.938,0,0,0-1.53-2.2,3.333,3.333,0,0,0-2.01-.671H1589.87a3.267,3.267,0,0,0-2.08.671,5.119,5.119,0,0,0-1.46,2.2,16.283,16.283,0,0,0-.92,4.089,54.728,54.728,0,0,0-.3,6.226,51.764,51.764,0,0,0,.3,6.042,16.133,16.133,0,0,0,.92,4.028,5.63,5.63,0,0,0,1.46,2.259,3.083,3.083,0,0,0,2.08.732h39.55V395.605a3.385,3.385,0,0,0,.79,2.2,5.592,5.592,0,0,0,2.63,1.587,25.488,25.488,0,0,0,4.94.976,82.236,82.236,0,0,0,15.5,0,25.612,25.612,0,0,0,4.95-.976,5.554,5.554,0,0,0,2.62-1.587,3.385,3.385,0,0,0,.79-2.2V268.286h39.56a3.146,3.146,0,0,0,2.01-.732,5.406,5.406,0,0,0,1.53-2.259,16.639,16.639,0,0,0,.91-4.028,51.525,51.525,0,0,0,.31-6.042A54.469,54.469,0,0,0,1705.65,249Zm84.71,84.351a73.412,73.412,0,0,0-2.93-21.241,45.015,45.015,0,0,0-9.15-16.906,42.169,42.169,0,0,0-15.93-11.17q-9.7-4.028-23.38-4.028a60.234,60.234,0,0,0-23.25,4.272,47.24,47.24,0,0,0-17.52,12.39,54.911,54.911,0,0,0-10.99,19.776,84.666,84.666,0,0,0-3.78,26.184q0,15.261,3.6,26.611a46.12,46.12,0,0,0,10.93,18.8,45.253,45.253,0,0,0,18.25,11.109,80.1,80.1,0,0,0,25.45,3.662,104.654,104.654,0,0,0,15.13-1.038,124.761,124.761,0,0,0,12.58-2.441,68.434,68.434,0,0,0,9.03-2.869,14.82,14.82,0,0,0,4.33-2.319,8.635,8.635,0,0,0,1.29-1.77,8.146,8.146,0,0,0,.73-2.259,29.175,29.175,0,0,0,.36-3.235c0.08-1.26.13-2.786,0.13-4.577,0-2.033-.07-3.723-0.19-5.066a10.023,10.023,0,0,0-.67-3.113,3.145,3.145,0,0,0-1.22-1.526,3.6,3.6,0,0,0-1.83-.427,13.693,13.693,0,0,0-4.76,1.16c-1.95.774-4.42,1.629-7.39,2.563a93.568,93.568,0,0,1-10.56,2.564,76.444,76.444,0,0,1-14.16,1.159,39.716,39.716,0,0,1-13.61-2.075,22.856,22.856,0,0,1-9.27-6.042,24,24,0,0,1-5.25-9.644,45.193,45.193,0,0,1-1.65-12.634h66.28a8.972,8.972,0,0,0,6.9-2.686q2.505-2.683,2.5-8.3V333.35Zm-75.68-3.907a43.536,43.536,0,0,1,1.77-10.8,27.117,27.117,0,0,1,4.39-8.789,20.971,20.971,0,0,1,7.21-5.92,22.218,22.218,0,0,1,10.19-2.2q11.6,0,17.15,7.386t5.19,20.324h-45.9Zm166,42.481a26.8,26.8,0,0,0-.67-4.212,4.277,4.277,0,0,0-1.16-2.258,2.736,2.736,0,0,0-1.83-.61,6.759,6.759,0,0,0-3.9,1.892q-2.325,1.895-5.74,4.211a44.222,44.222,0,0,1-8,4.212,28.492,28.492,0,0,1-10.92,1.892,24.946,24.946,0,0,1-10.93-2.259,19.846,19.846,0,0,1-7.81-6.774,33.149,33.149,0,0,1-4.7-11.231,67.676,67.676,0,0,1-1.59-15.5q0-17.821,6.35-27.038t18.31-9.217a29,29,0,0,1,10.5,1.709,41.31,41.31,0,0,1,7.57,3.784q3.165,2.077,5.49,3.785a7.524,7.524,0,0,0,4.4,1.709q1.95,0,3.17-2.869t1.22-9.949q0-3.049-.18-5.188a31.357,31.357,0,0,0-.49-3.6,7.509,7.509,0,0,0-.86-2.38,12.289,12.289,0,0,0-1.89-2.258,22.312,22.312,0,0,0-4.57-3.174,47.106,47.106,0,0,0-7.33-3.3,55.758,55.758,0,0,0-8.79-2.32,53.6,53.6,0,0,0-9.58-.854,61.661,61.661,0,0,0-21.97,3.784,45.579,45.579,0,0,0-17.34,11.6,53.983,53.983,0,0,0-11.41,19.714q-4.1,11.9-4.09,28.259a86.023,86.023,0,0,0,3.36,25.147,50.521,50.521,0,0,0,9.95,18.616,41.728,41.728,0,0,0,16.29,11.535,59.331,59.331,0,0,0,22.28,3.907,60.349,60.349,0,0,0,10.92-.977,65.6,65.6,0,0,0,9.83-2.563,49.379,49.379,0,0,0,8.06-3.6,26.468,26.468,0,0,0,5-3.418,8.918,8.918,0,0,0,1.9-2.319,11.772,11.772,0,0,0,.73-2.38,33.714,33.714,0,0,0,.49-3.6q0.18-2.135.18-5.31Q1880.93,374.487,1880.68,371.924Zm111.34-43.335a85.982,85.982,0,0,0-2.07-20.264,40.4,40.4,0,0,0-6.78-14.709,32.788,32.788,0,0,0-12.32-9.949q-7.635-3.661-18.74-3.662a41.465,41.465,0,0,0-19.47,4.883,69.046,69.046,0,0,0-18.37,14.648V286.963a3.815,3.815,0,0,0-.61-2.136,4.494,4.494,0,0,0-2.02-1.526,14.777,14.777,0,0,0-3.97-.916,56.594,56.594,0,0,0-6.47-.305,53.611,53.611,0,0,0-6.28.305,17.612,17.612,0,0,0-4.09.916,4.49,4.49,0,0,0-2.2,1.526,3.737,3.737,0,0,0-.61,2.136V395.85a3.308,3.308,0,0,0,.73,2.136,5.374,5.374,0,0,0,2.51,1.526,21.539,21.539,0,0,0,4.7.915q2.925,0.3,7.44.305t7.45-.305a21.789,21.789,0,0,0,4.7-.915,5.388,5.388,0,0,0,2.5-1.526,3.308,3.308,0,0,0,.73-2.136V323.462a64.134,64.134,0,0,1,12.45-12.451q5.985-4.272,11.84-4.273a17.69,17.69,0,0,1,8.12,1.77,15.021,15.021,0,0,1,5.68,5,24.835,24.835,0,0,1,3.36,7.752,52.562,52.562,0,0,1,1.16,12.451V395.85a3.308,3.308,0,0,0,.73,2.136,5.37,5.37,0,0,0,2.44,1.526,20.7,20.7,0,0,0,4.7.915q2.985,0.3,7.51.305,4.395,0,7.38-.305a20.816,20.816,0,0,0,4.7-.915,5.37,5.37,0,0,0,2.44-1.526,3.308,3.308,0,0,0,.73-2.136V328.589Zm42.92-41.382a3.366,3.366,0,0,0-.73-2.136,5.81,5.81,0,0,0-2.51-1.587,20.937,20.937,0,0,0-4.7-1.038,75.9,75.9,0,0,0-14.89,0,21.067,21.067,0,0,0-4.7,1.038,5.768,5.768,0,0,0-2.5,1.587,3.31,3.31,0,0,0-.73,2.136V395.85a3.308,3.308,0,0,0,.73,2.136,5.388,5.388,0,0,0,2.5,1.526,21.789,21.789,0,0,0,4.7.915c1.95,0.2,4.44.305,7.45,0.305s5.49-.1,7.44-0.305a21.663,21.663,0,0,0,4.7-.915,5.428,5.428,0,0,0,2.51-1.526,3.364,3.364,0,0,0,.73-2.136V287.207Zm-1.35-49.5q-3.66-3.48-13.91-3.479-10.38,0-14.1,3.6t-3.72,12.878q0,8.912,3.6,12.329t13.97,3.418q10.26,0,14.04-3.54t3.79-12.817Q2037.26,241.188,2033.59,237.708Zm96.97,134.216a27.878,27.878,0,0,0-.68-4.212,4.277,4.277,0,0,0-1.16-2.258,2.736,2.736,0,0,0-1.83-.61,6.759,6.759,0,0,0-3.9,1.892q-2.325,1.895-5.74,4.211a44.222,44.222,0,0,1-8,4.212,28.492,28.492,0,0,1-10.92,1.892,24.977,24.977,0,0,1-10.93-2.259,19.846,19.846,0,0,1-7.81-6.774,33.149,33.149,0,0,1-4.7-11.231,67.676,67.676,0,0,1-1.59-15.5q0-17.821,6.35-27.038t18.31-9.217a29,29,0,0,1,10.5,1.709,41.31,41.31,0,0,1,7.57,3.784c2.11,1.385,3.95,2.646,5.49,3.785a7.524,7.524,0,0,0,4.4,1.709q1.95,0,3.17-2.869t1.22-9.949q0-3.049-.18-5.188a31.357,31.357,0,0,0-.49-3.6,7.77,7.77,0,0,0-.85-2.38,12.853,12.853,0,0,0-1.9-2.258,22.312,22.312,0,0,0-4.57-3.174,47.106,47.106,0,0,0-7.33-3.3,55.758,55.758,0,0,0-8.79-2.32,53.6,53.6,0,0,0-9.58-.854,61.661,61.661,0,0,0-21.97,3.784,45.579,45.579,0,0,0-17.34,11.6,54.124,54.124,0,0,0-11.41,19.714q-4.1,11.9-4.09,28.259a86.023,86.023,0,0,0,3.36,25.147,50.521,50.521,0,0,0,9.95,18.616,41.728,41.728,0,0,0,16.29,11.535,59.331,59.331,0,0,0,22.28,3.907,60.459,60.459,0,0,0,10.93-.977,65.467,65.467,0,0,0,9.82-2.563,49.379,49.379,0,0,0,8.06-3.6,26.468,26.468,0,0,0,5-3.418,8.918,8.918,0,0,0,1.9-2.319,11.772,11.772,0,0,0,.73-2.38,33.714,33.714,0,0,0,.49-3.6q0.18-2.135.18-5.31Q2130.8,374.487,2130.56,371.924Zm112.62-57.373a48.585,48.585,0,0,0-10.44-18.921,44.414,44.414,0,0,0-17.76-11.658q-10.74-3.964-25.39-3.967-15.015,0-26.18,4.516a49.869,49.869,0,0,0-18.62,12.757,53.651,53.651,0,0,0-11.17,19.775,82.6,82.6,0,0,0-3.72,25.452,88.023,88.023,0,0,0,3.42,25.635,48.171,48.171,0,0,0,10.5,18.921,45.381,45.381,0,0,0,17.82,11.718q10.74,4.029,25.27,4.029,15.015,0,26.24-4.517a49.406,49.406,0,0,0,18.68-12.817,53.619,53.619,0,0,0,11.11-19.776,83.237,83.237,0,0,0,3.66-25.39A88.5,88.5,0,0,0,2243.18,314.551ZM2213.4,356.97a33.474,33.474,0,0,1-4.89,11.536,21.56,21.56,0,0,1-8.42,7.263,27.27,27.27,0,0,1-12.08,2.5,26.646,26.646,0,0,1-12.7-2.746,20.677,20.677,0,0,1-8.12-7.752,36.669,36.669,0,0,1-4.33-11.779,76.033,76.033,0,0,1-1.34-14.832,66.081,66.081,0,0,1,1.64-15.442,35.02,35.02,0,0,1,4.95-11.6,21.481,21.481,0,0,1,8.42-7.325,26.974,26.974,0,0,1,11.96-2.5q7.7,0,12.76,2.807a21.72,21.72,0,0,1,8.12,7.813,34.9,34.9,0,0,1,4.33,11.78,79.45,79.45,0,0,1,1.28,14.831A68.469,68.469,0,0,1,2213.4,356.97ZM2379.95,318a48.3,48.3,0,0,0-8.79-17.93,38.8,38.8,0,0,0-14.98-11.338q-9.06-3.954-21.45-3.955-12.735,0-22.19,4.219a42.2,42.2,0,0,0-15.73,11.909,50.748,50.748,0,0,0-9.36,18.589,89.234,89.234,0,0,0-3.08,24.258,96.632,96.632,0,0,0,2.77,24.17,48.726,48.726,0,0,0,8.61,18.149,38.269,38.269,0,0,0,14.94,11.426q9.105,4,21.76,4t22.15-4.219a41.393,41.393,0,0,0,15.73-12,52.475,52.475,0,0,0,9.36-18.808A99.766,99.766,0,0,0,2379.95,318Zm-10.5,43.374a45.15,45.15,0,0,1-6.42,15.557,32.871,32.871,0,0,1-11.77,10.722q-7.305,4-18.02,4-10.815,0-18.02-3.735a29.961,29.961,0,0,1-11.51-10.327,43.986,43.986,0,0,1-6.11-15.513,97.534,97.534,0,0,1-1.8-19.292,84.8,84.8,0,0,1,1.97-18.545,43.9,43.9,0,0,1,6.51-15.381,33.108,33.108,0,0,1,11.78-10.5q7.245-3.909,17.79-3.911,10.635,0,17.85,3.736a30.439,30.439,0,0,1,11.55,10.283,44.231,44.231,0,0,1,6.24,15.381,90.432,90.432,0,0,1,1.89,18.94A86.679,86.679,0,0,1,2369.45,361.372Zm106.1-42.539a47.718,47.718,0,0,0-10.15-17.4,45.063,45.063,0,0,0-16.7-11.206q-9.975-3.956-24.48-3.955h-23.91a5.631,5.631,0,0,0-3.25,1.186q-1.665,1.187-1.67,4.351V394.463q0,3.163,1.67,4.35a5.633,5.633,0,0,0,3.25,1.187h22.41q14.325,0,24.66-3.779a44.888,44.888,0,0,0,17.36-11.162,47.848,47.848,0,0,0,10.63-18.326,80.855,80.855,0,0,0,3.6-25.268A70.6,70.6,0,0,0,2475.55,318.833Zm-10.77,44.824a38.549,38.549,0,0,1-8.04,15.073,32.053,32.053,0,0,1-13.41,8.833q-8.04,2.858-19.64,2.857h-17.58V295.85h17.49q12.39,0,20.39,3.471a35.792,35.792,0,0,1,13.23,9.624,39.549,39.549,0,0,1,7.74,14.634,64.771,64.771,0,0,1,2.5,18.413A77.08,77.08,0,0,1,2464.78,363.657Zm102.91-73.784a7.217,7.217,0,0,0,.57-2.109,1.467,1.467,0,0,0-.44-1.231,3.222,3.222,0,0,0-1.67-.615,23,23,0,0,0-3.21-.176,27.13,27.13,0,0,0-2.99.132,7.244,7.244,0,0,0-1.8.4,1.768,1.768,0,0,0-.92.7,4,4,0,0,0-.44,1.054l-34.28,100.108h-0.09l-35.33-100.108a6.612,6.612,0,0,0-.57-1.054,2.166,2.166,0,0,0-.88-0.7,5.623,5.623,0,0,0-1.58-.4,21.719,21.719,0,0,0-2.68-.132,31.773,31.773,0,0,0-3.25.132,3.913,3.913,0,0,0-1.85.571,1.585,1.585,0,0,0-.66,1.275,5.352,5.352,0,0,0,.48,2.153l38.94,108.193a3.021,3.021,0,0,0,.44.879,2.365,2.365,0,0,0,.7.616,4.883,4.883,0,0,0,.97.439,9.328,9.328,0,0,0,1.23.308,12.06,12.06,0,0,0,1.58.175c0.59,0.029,1.23.044,1.94,0.044a24.9,24.9,0,0,0,2.68-.131,10.777,10.777,0,0,0,2.02-.4,3.6,3.6,0,0,0,1.36-.747,3.066,3.066,0,0,0,.79-1.187Z"/>
</svg>
